HIERARCHY
ROOT Hips
{
	OFFSET 0.053599 88.859886 3.107447
	CHANNELS 6 Xposition Yposition Zposition Zrotation Yrotation Xrotation 
	JOINT Spine
	{
		OFFSET -0.000000 8.814246 -2.080107
		CHANNELS 3 Zrotation Yrotation Xrotation
		JOINT Spine1
		{
			OFFSET 0.000000 8.844141 0.000000
			CHANNELS 3 Zrotation Yrotation Xrotation
			JOINT Spine2
			{
				OFFSET -0.000000 11.682268 0.000000
				CHANNELS 3 Zrotation Yrotation Xrotation
				JOINT Spine3
				{
					OFFSET 0.000000 11.746700 0.000000
					CHANNELS 3 Zrotation Yrotation Xrotation
					JOINT Neck
					{
						OFFSET -0.000000 17.658264 -0.000000
						CHANNELS 3 Zrotation Yrotation Xrotation
						JOINT Neck1
						{
							OFFSET -0.000000 5.101515 -0.000000
							CHANNELS 3 Zrotation Yrotation Xrotation
							JOINT Head
							{
								OFFSET 0.000000 5.101515 0.000000
								CHANNELS 3 Zrotation Yrotation Xrotation
								JOINT HeadEnd
								{
									OFFSET 0.000000 11.655085 0.000000
									CHANNELS 3 Zrotation Yrotation Xrotation
									End Site
									{
										OFFSET 0.000000 0.000000 0.000000
									}
								}
							}
						}
					}
					JOINT RightShoulder
					{
						OFFSET -2.625389 11.175210 0.000000
						CHANNELS 3 Zrotation Yrotation Xrotation
						JOINT RightArm
						{
							OFFSET -0.000000 10.434715 -0.000000
							CHANNELS 3 Zrotation Yrotation Xrotation
							JOINT RightForeArm
							{
								OFFSET -0.000000 29.628420 0.000000
								CHANNELS 3 Zrotation Yrotation Xrotation
								JOINT RightHand
								{
									OFFSET -0.000000 22.857611 0.000000
									CHANNELS 3 Zrotation Yrotation Xrotation
									JOINT RightHandThumb1
									{
										OFFSET -2.867323 3.959563 2.944291
										CHANNELS 3 Zrotation Yrotation Xrotation
										JOINT RightHandThumb2
										{
											OFFSET 0.000000 3.350399 0.000000
											CHANNELS 3 Zrotation Yrotation Xrotation
											JOINT RightHandThumb3
											{
												OFFSET 0.000000 3.756509 -0.000000
												CHANNELS 3 Zrotation Yrotation Xrotation
												JOINT RightHandThumb4
												{
													OFFSET 0.000000 3.147345 0.000000
													CHANNELS 3 Zrotation Yrotation Xrotation
													End Site
													{
														OFFSET 0.000000 0.000000 0.000000
													}
												}
											}
										}
									}
									JOINT RightHandIndex1
									{
										OFFSET -0.086752 10.030893 2.345280
										CHANNELS 3 Zrotation Yrotation Xrotation
										JOINT RightHandIndex2
										{
											OFFSET -0.000000 4.061090 0.000000
											CHANNELS 3 Zrotation Yrotation Xrotation
											JOINT RightHandIndex3
											{
												OFFSET -0.000000 3.248873 0.000000
												CHANNELS 3 Zrotation Yrotation Xrotation
												JOINT RightHandIndex4
												{
													OFFSET 0.000000 2.639709 -0.000000
													CHANNELS 3 Zrotation Yrotation Xrotation
													End Site
													{
														OFFSET 0.000000 0.000000 0.000000
													}
												}
											}
										}
									}
									JOINT RightHandMiddle1
									{
										OFFSET 0.104102 9.502952 0.006768
										CHANNELS 3 Zrotation Yrotation Xrotation
										JOINT RightHandMiddle2
										{
											OFFSET 0.000000 4.568727 0.000000
											CHANNELS 3 Zrotation Yrotation Xrotation
											JOINT RightHandMiddle3
											{
												OFFSET 0.000000 3.654981 -0.000000
												CHANNELS 3 Zrotation Yrotation Xrotation
												JOINT RightHandMiddle4
												{
													OFFSET -0.000000 2.741236 -0.000000
													CHANNELS 3 Zrotation Yrotation Xrotation
													End Site
													{
														OFFSET 0.000000 0.000000 0.000000
													}
												}
											}
										}
									}
									JOINT RightHandRing1
									{
										OFFSET 0.086752 8.921708 -2.267442
										CHANNELS 3 Zrotation Yrotation Xrotation
										JOINT RightHandRing2
										{
											OFFSET -0.000000 4.061090 0.000000
											CHANNELS 3 Zrotation Yrotation Xrotation
											JOINT RightHandRing3
											{
												OFFSET 0.000000 3.654981 -0.000000
												CHANNELS 3 Zrotation Yrotation Xrotation
												JOINT RightHandRing4
												{
													OFFSET 0.000000 2.741236 -0.000000
													CHANNELS 3 Zrotation Yrotation Xrotation
													End Site
													{
														OFFSET 0.000000 0.000000 0.000000
													}
												}
											}
										}
									}
									JOINT RightHandPinky1
									{
										OFFSET -0.173504 7.976997 -4.467199
										CHANNELS 3 Zrotation Yrotation Xrotation
										JOINT RightHandPinky2
										{
											OFFSET 0.000000 3.350399 -0.000000
											CHANNELS 3 Zrotation Yrotation Xrotation
											JOINT RightHandPinky3
											{
												OFFSET -0.000000 2.842763 0.000000
												CHANNELS 3 Zrotation Yrotation Xrotation
												JOINT RightHandPinky4
												{
													OFFSET -0.000000 2.639709 0.000000
													CHANNELS 3 Zrotation Yrotation Xrotation
													End Site
													{
														OFFSET 0.000000 0.000000 0.000000
													}
												}
											}
										}
									}
									JOINT RightForeArmEnd
									{
										OFFSET 0.000000 0.000000 0.000000
										CHANNELS 3 Zrotation Yrotation Xrotation
										End Site
										{
											OFFSET 0.000000 0.000000 0.000000
										}
									}
								}
								JOINT RightArmEnd
								{
									OFFSET 0.000000 0.000000 0.000000
									CHANNELS 3 Zrotation Yrotation Xrotation
									End Site
									{
										OFFSET 0.000000 0.000000 0.000000
									}
								}
							}
						}
					}
					JOINT LeftShoulder
					{
						OFFSET 2.625389 11.175210 0.000000
						CHANNELS 3 Zrotation Yrotation Xrotation
						JOINT LeftArm
						{
							OFFSET 0.000000 10.813635 -0.000000
							CHANNELS 3 Zrotation Yrotation Xrotation
							JOINT LeftForeArm
							{
								OFFSET 0.000000 28.724781 0.000000
								CHANNELS 3 Zrotation Yrotation Xrotation
								JOINT LeftHand
								{
									OFFSET 0.644384 25.716167 -0.328871
									CHANNELS 3 Zrotation Yrotation Xrotation
									JOINT LeftHandThumb1
									{
										OFFSET 2.867323 3.959563 2.944291
										CHANNELS 3 Zrotation Yrotation Xrotation
										JOINT LeftHandThumb2
										{
											OFFSET 0.000000 3.350399 0.000000
											CHANNELS 3 Zrotation Yrotation Xrotation
											JOINT LeftHandThumb3
											{
												OFFSET -0.000000 3.756509 0.000000
												CHANNELS 3 Zrotation Yrotation Xrotation
												JOINT LeftHandThumb4
												{
													OFFSET -0.000000 3.100000 0.000000
													CHANNELS 3 Zrotation Yrotation Xrotation
													End Site
													{
														OFFSET 0.000000 0.000000 0.000000
													}
												}
											}
										}
									}
									JOINT LeftHandIndex1
									{
										OFFSET 0.086752 10.030893 2.345280
										CHANNELS 3 Zrotation Yrotation Xrotation
										JOINT LeftHandIndex2
										{
											OFFSET -0.000000 4.061090 -0.000000
											CHANNELS 3 Zrotation Yrotation Xrotation
											JOINT LeftHandIndex3
											{
												OFFSET 0.000000 3.248873 -0.000000
												CHANNELS 3 Zrotation Yrotation Xrotation
												JOINT LeftHandIndex4
												{
													OFFSET 0.000000 2.639709 -0.000000
													CHANNELS 3 Zrotation Yrotation Xrotation
													End Site
													{
														OFFSET 0.000000 0.000000 0.000000
													}
												}
											}
										}
									}
									JOINT LeftHandMiddle1
									{
										OFFSET -0.104102 9.502952 0.006768
										CHANNELS 3 Zrotation Yrotation Xrotation
										JOINT LeftHandMiddle2
										{
											OFFSET -0.000000 4.568727 -0.000000
											CHANNELS 3 Zrotation Yrotation Xrotation
											JOINT LeftHandMiddle3
											{
												OFFSET 0.000000 3.654981 0.000000
												CHANNELS 3 Zrotation Yrotation Xrotation
												JOINT LeftHandMiddle4
												{
													OFFSET 0.000000 2.741236 -0.000000
													CHANNELS 3 Zrotation Yrotation Xrotation
													End Site
													{
														OFFSET 0.000000 0.000000 0.000000
													}
												}
											}
										}
									}
									JOINT LeftHandRing1
									{
										OFFSET -0.086752 8.921708 -2.267442
										CHANNELS 3 Zrotation Yrotation Xrotation
										JOINT LeftHandRing2
										{
											OFFSET 0.000000 4.061090 0.000000
											CHANNELS 3 Zrotation Yrotation Xrotation
											JOINT LeftHandRing3
											{
												OFFSET 0.000000 3.654981 0.000000
												CHANNELS 3 Zrotation Yrotation Xrotation
												JOINT LeftHandRing4
												{
													OFFSET 0.000000 2.741236 0.000000
													CHANNELS 3 Zrotation Yrotation Xrotation
													End Site
													{
														OFFSET 0.000000 0.000000 0.000000
													}
												}
											}
										}
									}
									JOINT LeftHandPinky1
									{
										OFFSET 0.173504 7.976997 -4.467199
										CHANNELS 3 Zrotation Yrotation Xrotation
										JOINT LeftHandPinky2
										{
											OFFSET -0.000000 3.350399 -0.000000
											CHANNELS 3 Zrotation Yrotation Xrotation
											JOINT LeftHandPinky3
											{
												OFFSET 0.000000 2.842763 0.000000
												CHANNELS 3 Zrotation Yrotation Xrotation
												JOINT LeftHandPinky4
												{
													OFFSET -0.000000 2.639709 -0.000000
													CHANNELS 3 Zrotation Yrotation Xrotation
													End Site
													{
														OFFSET 0.000000 0.000000 0.000000
													}
												}
											}
										}
									}
									JOINT LeftForeArmEnd
									{
										OFFSET 0.000000 0.000000 0.000000
										CHANNELS 3 Zrotation Yrotation Xrotation
										End Site
										{
											OFFSET 0.000000 0.000000 0.000000
										}
									}
								}
								JOINT LeftArmEnd
								{
									OFFSET 0.000000 0.000000 0.000000
									CHANNELS 3 Zrotation Yrotation Xrotation
									End Site
									{
										OFFSET 0.000000 0.000000 0.000000
									}
								}
							}
						}
					}
				}
			}
		}
	}
	JOINT RightUpLeg
	{
		OFFSET -11.289943 0.000000 0.000000
		CHANNELS 3 Zrotation Yrotation Xrotation
		JOINT RightLeg
		{
			OFFSET 0.000000 -38.200325 0.000000
			CHANNELS 3 Zrotation Yrotation Xrotation
			JOINT RightFoot
			{
				OFFSET -0.000000 -39.900856 -0.000000
				CHANNELS 3 Zrotation Yrotation Xrotation
				JOINT RightToeBase
				{
					OFFSET 0.000000 0.000000 15.261641
					CHANNELS 3 Zrotation Yrotation Xrotation
					JOINT RightToeBaseEnd
					{
						OFFSET 0.000000 0.000000 7.370709
						CHANNELS 3 Zrotation Yrotation Xrotation
						End Site
						{
							OFFSET 0.000000 0.000000 0.000000
						}
					}
				}
				JOINT RightLegEnd
				{
					OFFSET 0.000000 0.000000 0.000000
					CHANNELS 3 Zrotation Yrotation Xrotation
					End Site
					{
						OFFSET 0.000000 0.000000 0.000000
					}
				}
			}
			JOINT RightUpLegEnd
			{
				OFFSET 0.000000 0.000000 0.000000
				CHANNELS 3 Zrotation Yrotation Xrotation
				End Site
				{
					OFFSET 0.000000 0.000000 0.000000
				}
			}
		}
	}
	JOINT LeftUpLeg
	{
		OFFSET 11.315661 -0.000000 0.000000
		CHANNELS 3 Zrotation Yrotation Xrotation
		JOINT LeftLeg
		{
			OFFSET -0.000000 -38.200325 -0.000000
			CHANNELS 3 Zrotation Yrotation Xrotation
			JOINT LeftFoot
			{
				OFFSET 0.000000 -39.900856 -0.000000
				CHANNELS 3 Zrotation Yrotation Xrotation
				JOINT LeftToeBase
				{
					OFFSET -0.000000 -0.000000 15.261641
					CHANNELS 3 Zrotation Yrotation Xrotation
					JOINT LeftToeBaseEnd
					{
						OFFSET 0.000000 -0.000000 7.539996
						CHANNELS 3 Zrotation Yrotation Xrotation
						End Site
						{
							OFFSET 0.000000 0.000000 0.000000
						}
					}
				}
				JOINT LeftLegEnd
				{
					OFFSET 0.000000 0.000000 0.000000
					CHANNELS 3 Zrotation Yrotation Xrotation
					End Site
					{
						OFFSET 0.000000 0.000000 0.000000
					}
				}
			}
			JOINT LeftUpLegEnd
			{
				OFFSET 0.000000 0.000000 0.000000
				CHANNELS 3 Zrotation Yrotation Xrotation
				End Site
				{
					OFFSET 0.000000 0.000000 0.000000
				}
			}
		}
	}
}
MOTION
Frames: 4
Frame Time: 0.016667
0.269818 88.890511 3.011478 -0.044388 -0.621947 -10.023422 0.953334 -0.026168 6.984198 -0.506568 0.195282 3.216975 0.283662 -0.966313 3.425232 -0.976289 0.097540 4.614957 1.678909 0.876823 4.388037 0.513409 1.668417 -3.434868 -0.534992 -0.810936 -19.695393 0.000000 0.000000 0.000000 92.222862 -0.218151 9.682891 68.987396 -26.331156 2.451520 0.191080 15.742620 28.699726 -9.005626 1.007199 -7.603709 15.841888 31.593882 66.280571 -3.493129 -4.407910 -7.915544 -2.532258 -2.916183 -5.408370 0.000000 0.000000 0.000000 -19.665697 -5.612598 10.032569 1.201983 0.491506 0.638728 0.928614 0.053410 0.674212 0.000000 0.000000 0.000000 -18.973330 -0.197271 5.642717 0.188739 0.496859 0.228483 0.490878 0.003692 0.212455 0.000000 0.000000 0.000000 -17.863291 7.523236 0.720891 0.248234 -0.977456 -0.446076 0.227429 -0.003732 -0.306535 0.000000 0.000000 0.000000 -16.756422 15.431806 -4.673042 0.248410 -1.893406 -1.332187 0.120591 0.060130 -1.117263 0.000000 0.000000 0.000000 0.000000 0.000000 0.000000 0.000000 0.000000 0.000000 -89.269745 -0.033835 5.545288 -72.330841 16.170609 -6.878439 -0.348430 -12.067969 51.007866 10.464466 -3.395992 -15.334491 -14.905293 -31.903343 67.246262 2.461011 2.437781 -4.847349 1.642293 1.671713 -3.462443 0.000000 0.000000 0.000000 22.347767 -12.815431 15.123137 -0.684319 0.507080 -0.585572 -0.710636 0.046356 -0.595369 0.000000 0.000000 0.000000 21.477448 -7.325804 9.487980 -0.651379 0.500949 -0.260599 -0.868325 0.014650 -0.214946 0.000000 0.000000 0.000000 18.833763 1.224139 2.241748 -1.812264 -0.999508 0.445928 -1.880440 -0.015060 0.352250 0.000000 0.000000 0.000000 14.027978 11.032355 -5.133407 -3.210368 -1.891926 1.555155 -2.986034 0.083316 1.358632 0.000000 0.000000 0.000000 0.000000 0.000000 0.000000 0.000000 0.000000 0.000000 -0.615943 -8.897356 14.151541 -0.072714 -0.680321 5.235037 -2.969740 -7.896615 17.334866 -0.867083 0.771375 -18.717525 0.000000 0.000000 0.000000 0.000000 0.000000 0.000000 0.000000 0.000000 0.000000 -1.467186 -6.003583 9.377599 0.074713 0.347985 9.354290 3.716777 -0.744006 17.412451 0.265650 -0.475959 -20.901821 0.000000 0.000000 0.000000 0.000000 0.000000 0.000000 0.000000 0.000000 0.000000 
0.270323 88.897903 3.015550 -0.024861 -0.708794 -10.053825 0.931170 -0.024940 7.006277 -0.516924 0.196901 3.224127 0.225783 -0.986394 3.486231 -0.969116 0.077344 4.613106 1.797304 0.774893 4.402781 0.532758 1.611753 -3.426490 -0.519227 -0.832496 -19.623945 0.000000 0.000000 0.000000 92.293259 -0.232397 9.685112 69.052132 -26.276592 2.446146 0.204429 15.989332 28.825556 -9.267357 0.789114 -7.446889 15.813627 31.607767 66.317490 -3.451968 -4.336001 -7.813561 -2.500894 -2.874933 -5.335709 0.000000 0.000000 0.000000 -20.050415 -5.537495 10.113763 1.140852 0.497266 0.626806 0.864330 0.059924 0.665586 0.000000 0.000000 0.000000 -19.314312 -0.132237 5.723835 0.139941 0.500138 0.221346 0.455318 0.006922 0.207980 0.000000 0.000000 0.000000 -18.087767 7.563787 0.813275 0.251654 -0.983184 -0.431228 0.225975 -0.008267 -0.293848 0.000000 0.000000 0.000000 -16.859276 15.466980 -4.581891 0.305879 -1.914148 -1.264952 0.173265 0.040130 -1.061165 0.000000 0.000000 0.000000 0.000000 0.000000 0.000000 0.000000 0.000000 0.000000 -89.285210 -0.045188 5.560346 -72.516869 16.037727 -7.094933 -0.403193 -12.216743 51.215942 11.209661 -3.126703 -15.212914 -14.864497 -31.924555 67.294693 2.403866 2.355984 -4.708101 1.599056 1.615101 -3.364449 0.000000 0.000000 0.000000 22.987930 -12.900119 15.252553 -0.697888 0.515499 -0.564734 -0.733735 0.056090 -0.574145 0.000000 0.000000 0.000000 22.046469 -7.416007 9.635072 -0.678355 0.505019 -0.249974 -0.888420 0.018264 -0.206649 0.000000 0.000000 0.000000 19.338293 1.129121 2.369064 -1.859556 -1.007710 0.426284 -1.919892 -0.021573 0.338467 0.000000 0.000000 0.000000 14.470686 10.961159 -5.047380 -3.259723 -1.914983 1.488043 -3.035886 0.061569 1.304718 0.000000 0.000000 0.000000 0.000000 0.000000 0.000000 0.000000 0.000000 0.000000 -0.649758 -8.899384 14.165610 -0.073254 -0.682642 5.215242 -2.981161 -7.847520 17.335304 -0.862793 0.771170 -18.691076 0.000000 0.000000 0.000000 0.000000 0.000000 0.000000 0.000000 0.000000 0.000000 -1.476070 -5.946329 9.427701 0.074344 0.348392 9.275049 3.716497 -0.666616 17.463051 0.269359 -0.474344 -20.930513 0.000000 0.000000 0.000000 0.000000 0.000000 0.000000 0.000000 0.000000 0.000000 
0.272022 88.903603 3.019086 -0.006291 -0.794834 -10.070456 0.910224 -0.022494 7.021066 -0.525798 0.198038 3.215849 0.179458 -0.991233 3.552199 -0.959909 0.063571 4.601998 1.912653 0.694109 4.415181 0.549714 1.571629 -3.424670 -0.505772 -0.848638 -19.553320 0.000000 0.000000 0.000000 92.362671 -0.245248 9.677444 69.059006 -26.234167 2.438872 0.214817 16.207542 28.955780 -9.467903 0.717891 -7.334313 15.804268 31.613693 66.331421 -3.436462 -4.305583 -7.776990 -2.489151 -2.860982 -5.307938 0.000000 0.000000 0.000000 -20.294577 -5.490035 10.174271 1.096105 0.504517 0.607709 0.819666 0.067557 0.649677 0.000000 0.000000 0.000000 -19.520014 -0.092364 5.792495 0.102639 0.503980 0.211984 0.436546 0.010407 0.201443 0.000000 0.000000 0.000000 -18.199869 7.584450 0.905757 0.256867 -0.990004 -0.415118 0.225296 -0.013362 -0.280309 0.000000 0.000000 0.000000 -16.876305 15.487653 -4.479774 0.352625 -1.934777 -1.198755 0.218529 0.020609 -1.006265 0.000000 0.000000 0.000000 0.000000 0.000000 0.000000 0.000000 0.000000 0.000000 -89.300713 -0.050302 5.550929 -72.620789 15.917029 -7.300345 -0.472410 -12.297009 51.352684 11.750333 -3.161399 -15.163808 -14.855649 -31.932438 67.308388 2.390043 2.336056 -4.672648 1.587993 1.599743 -3.339212 0.000000 0.000000 0.000000 23.367928 -12.944875 15.309793 -0.708593 0.524216 -0.540795 -0.754131 0.065608 -0.550372 0.000000 0.000000 0.000000 22.357758 -7.462816 9.723687 -0.701153 0.509090 -0.237995 -0.902421 0.021779 -0.197204 0.000000 0.000000 0.000000 19.561281 1.081362 2.473721 -1.896107 -1.015385 0.406256 -1.951726 -0.027861 0.323899 0.000000 0.000000 0.000000 14.624915 10.932267 -4.955196 -3.300365 -1.936039 1.422925 -3.075921 0.041869 1.251381 0.000000 0.000000 0.000000 0.000000 0.000000 0.000000 0.000000 0.000000 0.000000 -0.687949 -8.902264 14.178065 -0.073564 -0.684763 5.179692 -2.977947 -7.818408 17.340963 -0.860427 0.771949 -18.662836 0.000000 0.000000 0.000000 0.000000 0.000000 0.000000 0.000000 0.000000 0.000000 -1.486725 -5.883461 9.457829 0.074583 0.350032 9.206512 3.723138 -0.598052 17.503025 0.271011 -0.472234 -20.952171 0.000000 0.000000 0.000000 0.000000 0.000000 0.000000 0.000000 0.000000 0.000000 
0.274386 88.907036 3.021388 0.010648 -0.876659 -10.076922 0.892034 -0.019036 7.031696 -0.534169 0.199174 3.196498 0.145348 -0.983453 3.627734 -0.952593 0.055575 4.583115 2.017282 0.639913 4.415849 0.564210 1.553214 -3.432802 -0.496060 -0.859669 -19.483984 0.000000 0.000000 0.000000 92.426140 -0.257115 9.665687 69.023743 -26.179474 2.422573 0.222176 16.379719 29.096659 -9.604716 0.787096 -7.271791 15.807152 31.613647 66.328781 -3.438661 -4.304361 -7.785753 -2.490974 -2.865333 -5.310812 0.000000 0.000000 0.000000 -20.428520 -5.462163 10.199186 1.061052 0.511123 0.586434 0.788765 0.074329 0.631189 0.000000 0.000000 0.000000 -19.622599 -0.071015 5.832867 0.072784 0.507478 0.202689 0.428953 0.013447 0.194599 0.000000 0.000000 0.000000 -18.231882 7.589373 0.975914 0.262606 -0.996376 -0.400485 0.224922 -0.018017 -0.267935 0.000000 0.000000 0.000000 -16.832840 15.494748 -4.395347 0.388842 -1.951768 -1.141090 0.256696 0.004435 -0.958549 0.000000 0.000000 0.000000 0.000000 0.000000 0.000000 0.000000 0.000000 0.000000 -89.321899 -0.049215 5.529370 -72.659523 15.799106 -7.480758 -0.548805 -12.311552 51.419224 12.108107 -3.404516 -15.191906 -14.868749 -31.931217 67.299850 2.403845 2.357318 -4.705476 1.597991 1.612646 -3.361506 0.000000 0.000000 0.000000 23.557116 -12.960653 15.300077 -0.715757 0.531645 -0.516624 -0.768949 0.073398 -0.526663 0.000000 0.000000 0.000000 22.488861 -7.479800 9.753572 -0.719298 0.512572 -0.226069 -0.910575 0.024699 -0.187706 0.000000 0.000000 0.000000 19.590118 1.066182 2.543169 -1.922605 -1.021712 0.387497 -1.976345 -0.033101 0.309765 0.000000 0.000000 0.000000 14.574354 10.933576 -4.877631 -3.333184 -1.952499 1.363021 -3.107190 0.026494 1.201612 0.000000 0.000000 0.000000 0.000000 0.000000 0.000000 0.000000 0.000000 0.000000 -0.729259 -8.907597 14.183918 -0.073732 -0.687187 5.141768 -2.962028 -7.802531 17.351204 -0.859386 0.774151 -18.638193 0.000000 0.000000 0.000000 0.000000 0.000000 0.000000 0.000000 0.000000 0.000000 -1.496375 -5.812059 9.472144 0.075321 0.352334 9.149361 3.733164 -0.535875 17.530621 0.271044 -0.470401 -20.965063 0.000000 0.000000 0.000000 0.000000 0.000000 0.000000 0.000000 0.000000 0.000000 
